<svg viewBox="0 0 405.88 359.77" class="sf-icon sound"><defs></defs><title>sound</title><path d="M226.08,359.77a11.5,11.5,0,0,1-6.9-2.3L112.91,277.7C107.14,274,93,264.48,93,248.58V111.87c0-14.3,10.53-23.39,19.81-29.72L219.17,2.3a11.5,11.5,0,0,1,6.9-2.3,26.53,26.53,0,0,1,26.5,26.5V333.27A26.53,26.53,0,0,1,226.08,359.77ZM228.55,24L126.4,100.7,126,101c-6.7,4.55-10,8.11-10,10.85V248.58c0,1.39,1.27,4.53,9.76,10,0.22,0.14.44,0.29,0.65,0.45l102.15,76.67a3.49,3.49,0,0,0,1-2.48V26.5A3.49,3.49,0,0,0,228.55,24Z" class="cls-1"></path><path d="M104.5,261.94h-78C11.89,261.94,0,251.41,0,238.47V121.3c0-12.94,11.89-23.47,26.5-23.47h78a11.5,11.5,0,0,1,11.5,11.5V250.44A11.5,11.5,0,0,1,104.5,261.94ZM23,237.9a5.59,5.59,0,0,0,3.5,1H93V120.82H26.5a5.59,5.59,0,0,0-3.5,1v116Z" class="cls-1"></path><path d="M323.7,313.84a11.5,11.5,0,0,1-6-21.3,136.47,136.47,0,0,0,5-229.53A11.5,11.5,0,1,1,335.6,43.94a159.44,159.44,0,0,1-5.9,268.2A11.45,11.45,0,0,1,323.7,313.84Z" class="cls-1"></path><path d="M289.25,269.35a11.5,11.5,0,0,1-5.35-21.69,80.75,80.75,0,0,0,7.68-138.47,11.5,11.5,0,1,1,12.88-19.06A103.75,103.75,0,0,1,294.58,268,11.45,11.45,0,0,1,289.25,269.35Z" class="cls-1"></path></svg>