<svg version="1.1" xmlns="http://www.w3.org/2000/svg" xmlns:xlink="http://www.w3.org/1999/xlink" x="0px" y="0px" viewBox="0 0 36 40" xml:space="preserve" class="seat"><g><path d="M26.834,24.003L26.834,24.003l0,1.968h0v0.736v0.567v0.167l0,0v0.046
				c-8.545-1.967-13.848-0.621-17.649,0.198v-0.181v-0.229v-0.5v-0.732v-2.039v-0.609H5.245L7.006,35h2.18v-3.5h17.649V35h0h2.181
				l1.751-11.606h-3.932V24.003z" style="fill: rgb(40, 172, 224);"></path><path d="M8.893,22.226L8.893,22.226c0.245,0,0.444-0.199,0.444-0.443v-1.301
				c0-0.245-0.199-0.444-0.444-0.444l0,0h-3.45C5.199,20.038,5,20.237,5,20.481v0.067v1.234l0.068,0.445h3.826V22.226z" style="fill: rgb(40, 172, 224);"></path><path d="M26.834,8.294C26.834,6.475,25.358,5,23.538,5H12.481c-1.82,0-3.296,1.475-3.296,3.294v4.456
				h17.649V8.294z" style="fill: rgb(40, 172, 224);"></path><rect x="10.061" y="23.393" width="0.011" height="0.001" style="fill: rgb(255, 255, 255);"></rect><path d="M27.119,22.226L27.119,22.226c-0.227,0-0.411-0.199-0.411-0.443v-1.301
				c0-0.245,0.184-0.444,0.411-0.444l0,0h3.47c0.227,0,0.411,0.199,0.411,0.444v0.067v1.234l-0.063,0.445h-3.819V22.226z" style="fill: rgb(40, 172, 224);"></path><path d="M26.829,13.917v4.954h-0.437c-0.62,0-0.831,0.522-0.831,1.167l0.022,5.99
				c-2.733-0.786-5.061-0.96-7.575-1.017h-0.004c-2.513,0.057-4.842,0.231-7.575,1.017l0.022-5.99c0-0.644-0.211-1.167-0.831-1.167
				H9.185v-4.954" style="fill: rgb(40, 172, 224);"></path></g></svg>