<svg version="1.1" xmlns="http://www.w3.org/2000/svg" xmlns:xlink="http://www.w3.org/1999/xlink" x="0px" y="0px" viewBox="0 0 36 40" xml:space="preserve" class="seat"><g><path d="M18,7C10.82,7,5,12.82,5,20c0,7.18,5.82,13,13,13s13-5.82,13-13C31,12.82,25.18,7,18,7z
    		M26.157,15.884L15.841,26.283c-0.286,0.288-0.682,0.454-1.088,0.456h-0.004c-0.411,0-0.797-0.16-1.088-0.451l-3.813-3.812
    		c-0.6-0.6-0.6-1.576,0-2.176c0.583-0.582,1.596-0.582,2.176,0l2.72,2.719l9.225-9.302c0.597-0.603,1.573-0.608,2.178-0.009
    		c0.29,0.288,0.453,0.673,0.456,1.084C26.605,15.204,26.446,15.592,26.157,15.884z" style="fill: rgb(255, 0, 0);"></path></g></svg>