<svg version="1.1" xmlns="http://www.w3.org/2000/svg" xmlns:xlink="http://www.w3.org/1999/xlink" x="0px" y="px" viewBox="0 0 36 40" xml:space="preserve" class="seat"><g><path d="M30.926,23.867c-0.154-0.57-0.48-1.102-0.941-1.564c-0.345-0.347-0.767-0.655-1.248-0.912
    			c-0.962-0.514-2.165-0.821-3.481-0.821c0,0-0.025,0.109-0.067,0.313c-0.028,0.136-0.064,0.315-0.104,0.532
    			c-0.01,0.054-0.021,0.111-0.031,0.17c-0.075,0.412-0.163,0.939-0.251,1.558c-0.013,0.088-0.025,0.179-0.038,0.271
    			c-0.025,0.184-0.05,0.376-0.074,0.574s-0.048,0.403-0.071,0.615c-0.058,0.528-0.111,1.096-0.153,1.695
    			c-0.001,0.019-0.003,0.038-0.004,0.057c-0.016,0.222-0.03,0.447-0.043,0.676c-0.014,0.249-0.025,0.503-0.035,0.76
    			c-0.012,0.325-0.022,0.653-0.03,0.98c-0.003,0.109-0.005,0.218-0.007,0.326c-0.004,0.217-0.008,0.433-0.011,0.648
    			c-0.007,0.536-0.01,1.06-0.009,1.557c0,0.199,0.001,0.393,0.002,0.583c0.003,0.568,0.01,1.088,0.017,1.533
    			c0.003,0.149,0.005,0.289,0.008,0.42c0.015,0.721,0.03,1.163,0.03,1.163h2.966c0.931,0,1.721-0.482,1.853-1.13l0.732-3.599
    			l1.032-5.069c0.031-0.153,0.05-0.305,0.056-0.455C31.037,24.447,31.003,24.152,30.926,23.867z" style="fill: rgb(17, 91, 170);"></path><path d="M0.384,8.788l0.215,11.696v2.878v1.74c0.78,0.005,1.573,0.016,2.38,0.034
    			c0.16,0.004,0.321,0.008,0.482,0.012c1.608,0.042,3.264,0.11,4.964,0.211c4.465,0.266,9.226,0.756,14.171,1.56
    			c0.125,0.02,0.25,0.041,0.375,0.062v-0.793c0.021,0.005,0.042,0.01,0.063,0.016c0.028-0.392,0.059-0.77,0.094-1.133
    			c0.314-5.915,0.905-13.081,2.018-15.762c0,0-0.219-0.825-2.603-1.527c-1.085,2.093-4.167,5.2-10,5.2
    			c-5.648,0-8.717-3.171-9.891-5.256L0.384,8.788z" style="fill: rgb(17, 91, 170);"></path><path d="M4.09,7.871c0.037,0.063,0.077,0.128,0.12,0.196C4.25,8.13,4.293,8.195,4.339,8.262
    			C4.522,8.531,4.75,8.829,5.031,9.136c0.07,0.077,0.143,0.154,0.22,0.232c0.383,0.389,0.85,0.785,1.414,1.151
    			c0.79,0.512,1.77,0.965,2.976,1.253c0.646,0.154,1.358,0.262,2.14,0.306c0.261,0.015,0.529,0.022,0.806,0.022l0,0
    			c0.221,0,0.437-0.005,0.648-0.014c0.241-0.011,0.474-0.029,0.702-0.051c0.33-0.032,0.647-0.076,0.95-0.13
    			c0.221-0.039,0.437-0.082,0.645-0.132c0.172-0.041,0.34-0.086,0.503-0.133c0.239-0.07,0.465-0.148,0.685-0.23
    			c0.531-0.197,1.011-0.425,1.437-0.675c0.121-0.07,0.237-0.142,0.35-0.216c0.451-0.293,0.84-0.605,1.174-0.917
    			c0.25-0.234,0.47-0.468,0.661-0.694s0.354-0.444,0.491-0.645c0.046-0.067,0.089-0.132,0.129-0.195
    			c0.077-0.121,0.144-0.233,0.201-0.336c0.093-0.165,0.162-0.305,0.211-0.41c0.016-0.035,0.03-0.066,0.042-0.094
    			c0.035-0.08,0.05-0.124,0.05-0.124c-0.001,0-0.001-0.001-0.002-0.001c-0.248-0.131-0.495-0.253-0.743-0.37
    			c-0.062-0.029-0.124-0.058-0.186-0.087c-0.495-0.228-0.989-0.428-1.481-0.602c-0.06-0.021-0.121-0.043-0.181-0.063
    			c-0.492-0.169-0.981-0.313-1.466-0.434c-0.058-0.014-0.115-0.028-0.173-0.042c-0.485-0.116-0.965-0.209-1.439-0.283
    			c-0.056-0.009-0.112-0.017-0.168-0.025c-0.472-0.069-0.937-0.118-1.395-0.149c-0.056-0.004-0.111-0.008-0.167-0.011
    			c-0.223-0.013-0.444-0.022-0.663-0.028c-0.017,0-0.034,0-0.052-0.001C13.201,5.004,13.048,5,12.897,5
    			c-0.055,0-0.109,0.002-0.164,0.002c-0.056,0-0.111,0.001-0.166,0.002c-0.212,0.004-0.423,0.009-0.631,0.019
    			c-0.007,0-0.013,0.001-0.019,0.001c-0.207,0.01-0.412,0.024-0.614,0.04c-0.055,0.004-0.11,0.009-0.165,0.014
    			c-0.195,0.017-0.388,0.036-0.578,0.057c-0.016,0.002-0.031,0.004-0.047,0.005c-0.188,0.022-0.373,0.047-0.556,0.073
    			C9.903,5.222,9.848,5.23,9.794,5.239C9.618,5.265,9.445,5.293,9.275,5.323C9.251,5.327,9.227,5.332,9.203,5.336
    			C9.035,5.366,8.87,5.398,8.708,5.431C8.655,5.442,8.603,5.453,8.551,5.464C8.394,5.497,8.239,5.531,8.088,5.566
    			C8.06,5.573,8.032,5.579,8.005,5.586C7.856,5.621,7.71,5.657,7.568,5.694C7.518,5.707,7.469,5.72,7.42,5.733
    			c-0.137,0.036-0.271,0.073-0.402,0.11C6.987,5.852,6.955,5.861,6.924,5.87C6.796,5.908,6.671,5.945,6.549,5.983
    			C6.504,5.997,6.46,6.011,6.416,6.025C6.297,6.062,6.181,6.1,6.069,6.137C6.04,6.147,6.012,6.156,5.983,6.166
    			C5.874,6.203,5.768,6.24,5.665,6.277C5.626,6.291,5.588,6.304,5.55,6.318C5.451,6.354,5.354,6.39,5.263,6.425
    			c-0.026,0.01-0.052,0.02-0.077,0.03c-0.089,0.034-0.174,0.068-0.255,0.1C4.898,6.567,4.866,6.58,4.835,6.593
    			C4.754,6.626,4.676,6.658,4.604,6.689c-0.017,0.007-0.033,0.013-0.05,0.02C4.483,6.74,4.415,6.769,4.352,6.797
    			c-0.023,0.01-0.045,0.02-0.067,0.03C4.228,6.853,4.173,6.877,4.124,6.9C4.108,6.907,4.093,6.914,4.078,6.921
    			C4.032,6.943,3.99,6.963,3.952,6.981c-0.015,0.007-0.03,0.014-0.044,0.021C3.872,7.02,3.838,7.036,3.812,7.049
    			c-0.005,0.003-0.01,0.005-0.015,0.007c-0.024,0.012-0.044,0.022-0.059,0.03C3.733,7.09,3.726,7.093,3.721,7.096
    			c-0.005,0.003-0.01,0.006-0.012,0.006c-0.001,0-0.004,0.002-0.004,0.002s0.016,0.044,0.05,0.124
    			C3.812,7.358,3.92,7.585,4.09,7.871z" style="fill: rgb(17, 91, 170);"></path><path d="M22.578,28.101c-0.018-0.003-0.034-0.006-0.051-0.008c-1.056-0.171-2.105-0.329-3.143-0.473
    			c-5.779-0.799-11.259-1.18-16.25-1.299c-0.029-0.001-0.059-0.002-0.088-0.002c-0.129-0.003-0.257-0.005-0.385-0.008
    			C1.755,26.292,0.871,26.284,0,26.282C0,28.921,0,32.247,0,35h2.66h2.716H16.38h3.647h2.5h0.096h0.348v-6.835
    			C22.84,28.143,22.709,28.123,22.578,28.101z" style="fill: rgb(17, 91, 170);"></path></g></svg>