<svg version="1.1" xmlns="http://www.w3.org/2000/svg" xmlns:xlink="http://www.w3.org/1999/xlink" x="0px" y="0px" viewBox="0 0 36 40" xml:space="preserve" class="seat"><g><path d="M11.346,26.354c-0.06-0.86-0.141-1.657-0.229-2.367c-0.256-2.082-0.566-3.418-0.566-3.418
    			c-1.669,0-3.149,0.515-4.16,1.32c-0.379,0.302-0.692,0.645-0.925,1.018c-0.155,0.248-0.274,0.509-0.353,0.78
    			s-0.117,0.551-0.111,0.837c0.003,0.143,0.017,0.288,0.043,0.433l0.727,4.085l0.057,0.322l0.785,4.407
    			c0.031,0.175,0.108,0.34,0.221,0.488c0.113,0.148,0.262,0.28,0.439,0.389c0.177,0.11,0.381,0.197,0.604,0.258
    			C8.102,34.967,8.344,35,8.595,35h2.829c0,0,0.129-3.741,0-7.21C11.405,27.295,11.379,26.815,11.346,26.354z" style="fill: rgb(17, 91, 170);"></path><path d="M13.87,7.834c0.038,0.062,0.078,0.126,0.122,0.193c0.041,0.062,0.084,0.127,0.13,0.193
    			c0.185,0.265,0.416,0.559,0.699,0.862c0.071,0.076,0.145,0.152,0.222,0.229c0.387,0.384,0.859,0.775,1.429,1.136
    			c0.798,0.506,1.788,0.952,3.007,1.237c0.653,0.152,1.372,0.258,2.162,0.302c0.263,0.014,0.535,0.022,0.814,0.022
    			c0.224,0,0.442-0.005,0.655-0.014c0.244-0.011,0.479-0.029,0.709-0.051c0.334-0.032,0.653-0.075,0.96-0.129
    			c0.223-0.039,0.442-0.081,0.651-0.13c0.174-0.041,0.344-0.085,0.509-0.132c0.242-0.069,0.47-0.146,0.693-0.227
    			c0.536-0.195,1.021-0.42,1.452-0.666c0.122-0.07,0.24-0.141,0.354-0.213c0.456-0.289,0.849-0.597,1.186-0.905
    			c0.253-0.231,0.474-0.462,0.667-0.685c0.193-0.223,0.357-0.438,0.496-0.637c0.046-0.066,0.09-0.131,0.13-0.193
    			c0.078-0.119,0.145-0.23,0.203-0.332c0.094-0.163,0.164-0.301,0.213-0.405c0.016-0.035,0.031-0.066,0.042-0.092
    			c0.035-0.079,0.051-0.122,0.051-0.122c-0.001,0-0.001-0.001-0.002-0.001c-0.25-0.13-0.501-0.25-0.751-0.365
    			c-0.063-0.029-0.125-0.058-0.188-0.086c-0.5-0.225-0.999-0.422-1.496-0.594c-0.061-0.021-0.122-0.042-0.183-0.062
    			c-0.497-0.167-0.991-0.309-1.481-0.428c-0.058-0.014-0.116-0.028-0.174-0.042c-0.49-0.114-0.975-0.207-1.453-0.279
    			c-0.057-0.009-0.113-0.017-0.17-0.025c-0.477-0.068-0.947-0.116-1.409-0.147c-0.056-0.004-0.112-0.007-0.169-0.011
    			c-0.225-0.013-0.449-0.022-0.67-0.028c-0.017,0-0.035,0-0.052-0.001C23.076,5.003,22.922,5,22.769,5
    			c-0.056,0-0.11,0.002-0.166,0.002s-0.112,0.001-0.168,0.002c-0.215,0.004-0.428,0.009-0.637,0.019
    			c-0.007,0-0.013,0.001-0.02,0.001c-0.21,0.01-0.416,0.024-0.62,0.04c-0.056,0.004-0.111,0.009-0.167,0.013
    			c-0.197,0.017-0.392,0.035-0.584,0.057c-0.016,0.002-0.031,0.004-0.047,0.005c-0.19,0.022-0.377,0.046-0.562,0.072
    			c-0.055,0.008-0.111,0.016-0.165,0.024c-0.177,0.026-0.352,0.054-0.524,0.083c-0.024,0.004-0.049,0.008-0.073,0.013
    			c-0.17,0.03-0.336,0.061-0.5,0.094c-0.053,0.011-0.106,0.021-0.159,0.032c-0.159,0.033-0.315,0.066-0.468,0.101
    			c-0.028,0.006-0.056,0.013-0.084,0.019c-0.151,0.035-0.297,0.071-0.442,0.107c-0.05,0.013-0.1,0.025-0.149,0.038
    			c-0.138,0.036-0.274,0.072-0.406,0.109c-0.032,0.009-0.063,0.018-0.095,0.027c-0.13,0.037-0.256,0.074-0.379,0.111
    			c-0.045,0.014-0.09,0.027-0.134,0.041c-0.12,0.037-0.238,0.074-0.351,0.111C15.84,6.13,15.811,6.14,15.783,6.149
    			c-0.111,0.037-0.217,0.073-0.321,0.109c-0.039,0.014-0.078,0.027-0.117,0.041c-0.1,0.035-0.197,0.071-0.29,0.105
    			c-0.026,0.01-0.052,0.019-0.078,0.029c-0.09,0.034-0.176,0.067-0.258,0.099c-0.033,0.013-0.065,0.025-0.096,0.038
    			c-0.081,0.032-0.16,0.064-0.233,0.094c-0.017,0.007-0.033,0.014-0.05,0.021c-0.073,0.03-0.14,0.059-0.204,0.087
    			c-0.023,0.01-0.046,0.02-0.068,0.029c-0.058,0.025-0.113,0.05-0.163,0.072c-0.016,0.007-0.031,0.014-0.046,0.021
    			c-0.046,0.021-0.089,0.041-0.127,0.059c-0.015,0.007-0.03,0.014-0.044,0.021c-0.036,0.017-0.07,0.034-0.097,0.047
    			c-0.005,0.003-0.01,0.005-0.015,0.007c-0.025,0.012-0.045,0.022-0.059,0.029c-0.007,0.003-0.014,0.007-0.018,0.009
    			c-0.005,0.003-0.011,0.005-0.012,0.006s-0.004,0.002-0.004,0.002s0.016,0.043,0.051,0.122C13.59,7.327,13.699,7.551,13.87,7.834z" style="fill: rgb(17, 91, 170);"></path><path d="M22.407,12.91c-5.706,0-8.808-2.875-9.994-4.932c-1.819,0.64-2.001,1.308-2.001,1.308
    			c1.257,2.479,1.934,9.313,2.3,15.107V26.7c0.088-0.016,0.185-0.034,0.295-0.053c1.98-0.352,7.375-1.206,14.973-1.589
    			c1.485-0.075,3.055-0.131,4.7-0.163c0.139-0.003,0.277-0.006,0.418-0.008c0.666-0.011,1.344-0.018,2.033-0.02v-1.815v-2.74V8.967
    			l-2.62-1.189C31.415,9.844,28.301,12.91,22.407,12.91z" style="fill: rgb(17, 91, 170);"></path><path d="M32.957,26.302c-7.585,0.133-13.567,0.814-17.043,1.318c-1.168,0.169-2.052,0.319-2.621,0.42
    			c-0.106,0.019-0.201,0.036-0.285,0.052c-0.121,0.022-0.221,0.041-0.295,0.056V35h0.295h0.265h2.451h3.885h10.765h2.596H36
    			c0-2.753,0-6.079,0-8.718C34.962,26.279,33.943,26.285,32.957,26.302z" style="fill: rgb(17, 91, 170);"></path></g></svg>

