<svg xmlns="http://www.w3.org/2000/svg" viewBox="0 0 873.74 527.03" class="sf-icon sub"><title>sub</title><path d="M41.7,527H832a41.7,41.7,0,0,0,41.7-41.7V41.7A41.7,41.7,0,0,0,832,0H41.7A41.7,41.7,0,0,0,0,41.7V485.33A41.7,41.7,0,0,0,41.7,527M27.86,41.7A13.87,13.87,0,0,1,41.7,27.86H832A13.88,13.88,0,0,1,845.88,41.7V485.33a13.7,13.7,0,0,1-1,5.08A13.87,13.87,0,0,1,832,499.17H41.7a13.88,13.88,0,0,1-13.84-13.84V41.7Z"></path><path d="M183,398.47q-25.59,0-45.83-5.16A144.74,144.74,0,0,1,100.94,379l12.6-40.48a161.68,161.68,0,0,0,31.12,13,116.89,116.89,0,0,0,34.56,5.35q21.77,0,36.66-8.59t14.89-26.54a24.88,24.88,0,0,0-4.39-14.89,40.41,40.41,0,0,0-11.84-10.69,85.5,85.5,0,0,0-16.8-7.83l-19.29-6.68q-11.84-3.81-25.21-9.36a101.63,101.63,0,0,1-24.63-14.51,74.46,74.46,0,0,1-18.71-22.34q-7.45-13.36-7.45-32.84a73.84,73.84,0,0,1,5.16-27.5,57.45,57.45,0,0,1,16.23-22.53q11.07-9.54,28.26-15.08t41.25-5.54a177.1,177.1,0,0,1,39.91,4.2,150.24,150.24,0,0,1,34.56,12.6l-12.6,38.19A155.4,155.4,0,0,0,225.06,177a136,136,0,0,0-29-3.44q-22.91,0-34,8T151,201.79a26.53,26.53,0,0,0,4.2,15.08,39.24,39.24,0,0,0,11.08,10.88,81.89,81.89,0,0,0,15.66,8q8.78,3.44,17.95,6.49,13.75,4.58,27.88,10.5a106.91,106.91,0,0,1,25.59,15.09A74,74,0,0,1,272,290.2q7.25,13.18,7.26,32.27,0,19.48-7.45,33.61a69.75,69.75,0,0,1-20.24,23.68,86.82,86.82,0,0,1-30.36,14.13A151,151,0,0,1,183,398.47Z"></path><path d="M422.87,358q25.2,0,39.53-17t14.32-51.36V136.49h49.65V289.25q0,55.76-27.5,82.49t-76,26.73q-48.5,0-76-26.73t-27.5-82.49V136.49H369V289.63Q369,324,383.35,341T422.87,358Z"></path><path d="M767.72,205.61a51.69,51.69,0,0,1-3.06,18.14,56.57,56.57,0,0,1-8,14.7,62,62,0,0,1-11.07,11.27,72.79,72.79,0,0,1-12.22,7.83,65.06,65.06,0,0,1,32,20.43q13.09,15.09,13.1,40.67a78.84,78.84,0,0,1-5.55,29.79,61.18,61.18,0,0,1-17.41,23.87q-11.86,10.12-30,15.85T682,393.89H578.68V136.49H683.32q43.15,0,63.78,18.9T767.72,205.61Zm-84,35.52q16,0,26.35-7.83t10.31-25q0-14.51-9.93-22.72t-27.11-8.21H626.8v63.78h56.9ZM681.24,353q23,0,36-9.93t13-27.11q0-17.18-13.22-26t-37-8.78H626.8V353h54.43Z"></path></svg>